REM GENRE Blues
REM DATE 2006
REM DISCID 6106A707
REM COMMENT "ExactAudioCopy v0.99pb3"
PERFORMER "The Black Keys"
TITLE "Chulahoma"
FILE "01 - Keep Your Hands Off Her.wav" WAVE
  TRACK 01 AUDIO
    TITLE "Keep Your Hands Off Her"
    PERFORMER "The Black Keys"
    FLAGS DCP
    INDEX 01 00:00:00
FILE "02 - Have Mercy On Me.wav" WAVE
  TRACK 02 AUDIO
    TITLE "Have Mercy On Me"
    PERFORMER "The Black Keys"
    FLAGS DCP
    INDEX 01 00:00:00
  TRACK 03 AUDIO
    TITLE "Work Me"
    PERFORMER "The Black Keys"
    FLAGS DCP
    INDEX 00 04:42:54
FILE "03 - Work Me.wav" WAVE
    INDEX 01 00:00:00
FILE "04 - Meet Me In The City.wav" WAVE
  TRACK 04 AUDIO
    TITLE "Meet Me In The City"
    PERFORMER "The Black Keys"
    FLAGS DCP
    INDEX 01 00:00:00
FILE "05 - Nobody But You.wav" WAVE
  TRACK 05 AUDIO
    TITLE "Nobody But You"
    PERFORMER "The Black Keys"
    FLAGS DCP
    INDEX 01 00:00:00
FILE "06 - My Mind Is Ramblin'.wav" WAVE
  TRACK 06 AUDIO
    TITLE "My Mind Is Ramblin'"
    PERFORMER "The Black Keys"
    FLAGS DCP
    INDEX 01 00:00:00
  TRACK 07 AUDIO
    TITLE "Junior's Wife"
    PERFORMER "The Black Keys"
    FLAGS DCP
    INDEX 00 06:42:17
FILE "07 - Junior's Wife.wav" WAVE
    INDEX 01 00:00:00
